<svg id="close" xmlns="http://www.w3.org/2000/svg" width="130" height="130" viewBox="0 0 130 130">
  <g id="Group_591" data-name="Group 591">
    <g id="Group_590" data-name="Group 590">
      <path id="Path_23" data-name="Path 23" d="M65,0a65,65,0,1,0,65,65A64.963,64.963,0,0,0,65,0Zm0,119.844A54.844,54.844,0,1,1,119.844,65,54.813,54.813,0,0,1,65,119.844Z" fill="#d87676"/>
    </g>
  </g>
  <g id="Group_593" data-name="Group 593" transform="translate(42.432 42.432)">
    <g id="Group_592" data-name="Group 592">
      <path id="Path_24" data-name="Path 24" d="M206.277,199.446l-14.322-14.322L206.277,170.8a4.83,4.83,0,1,0-6.831-6.831l-14.323,14.322L170.8,163.971a4.83,4.83,0,1,0-6.831,6.831l14.322,14.322L163.97,199.446a4.83,4.83,0,1,0,6.831,6.831l14.323-14.322,14.323,14.322a4.83,4.83,0,1,0,6.831-6.831Z" transform="translate(-162.555 -162.556)" fill="#d87676"/>
    </g>
  </g>
</svg>
