<svg xmlns="http://www.w3.org/2000/svg" width="80" height="80" viewBox="0 0 80 80">
  <g id="refresh" transform="translate(-8.236)">
    <g id="Group_589" data-name="Group 589" transform="translate(8.236)">
      <path id="Path_22" data-name="Path 22" d="M48.4,2.963A40.741,40.741,0,0,0,20.527,13.787V2.963a3.075,3.075,0,0,0-6.146,0V20.741a2.974,2.974,0,0,0,2.1,2.812L34.92,29.478A3.1,3.1,0,0,0,38.81,27.6a2.944,2.944,0,0,0-1.948-3.751L23.25,19.482a34.546,34.546,0,0,1,47.563-1.953,31.65,31.65,0,0,1,2.026,45.863,34.546,34.546,0,0,1-47.563,1.953,31.785,31.785,0,0,1-10.427-29.3,2.974,2.974,0,0,0-2.486-3.437,3.066,3.066,0,0,0-3.564,2.4c0,.018-.006.035-.009.053a37.6,37.6,0,0,0-.553,6.421C8.261,62.744,26.131,79.975,48.182,80c22.062.057,39.994-17.141,40.054-38.414S70.459,3.021,48.4,2.963Z" transform="translate(-8.236)" fill="#10579b"/>
    </g>
  </g>
</svg>
