<svg xmlns="http://www.w3.org/2000/svg" width="130" height="134" viewBox="0 0 130 134"><defs><style>.a{fill:#10579b;}</style></defs><g transform="translate(-8.236)"><g transform="translate(8.236)"><path class="a" d="M73.5,4.963a65.122,65.122,0,0,0-45.29,18.129V4.963a4.993,4.993,0,0,0-9.986,0V34.741a4.965,4.965,0,0,0,3.416,4.71L51.6,49.376a4.972,4.972,0,1,0,3.156-9.429l-22.12-7.315a54.937,54.937,0,0,1,77.289-3.272,54.137,54.137,0,0,1,3.292,76.82,54.937,54.937,0,0,1-77.289,3.272A54.175,54.175,0,0,1,18.981,60.379,4.992,4.992,0,0,0,9.15,58.638c-.005.029-.01.059-.015.088a64.876,64.876,0,0,0-.9,10.755C8.277,105.1,37.315,133.959,73.148,134c35.85.1,64.991-28.712,65.088-64.344S109.349,5.06,73.5,4.963Z" transform="translate(-8.236)"/></g></g></svg>