<svg xmlns="http://www.w3.org/2000/svg" width="80" height="80" viewBox="0 0 80 80">
  <g id="Group_633" data-name="Group 633" transform="translate(-3084 -6318)">
    <circle id="Ellipse_1" data-name="Ellipse 1" cx="40" cy="40" r="40" transform="translate(3084 6318)" fill="#fff"/>
    <g id="Group_629" data-name="Group 629" transform="translate(-64 -76)">
      <circle id="Ellipse_2" data-name="Ellipse 2" cx="35" cy="35" r="35" transform="translate(3153 6399)" fill="#369b01"/>
      <g id="Group_597" data-name="Group 597" transform="translate(3169.136 6419.164)">
        <g id="Group_596" data-name="Group 596">
          <path id="Path_26" data-name="Path 26" d="M168.822,162.607a3.02,3.02,0,0,0-4.262.205l-18.413,20.276-8.9-9.044a3.018,3.018,0,1,0-4.3,4.232l11.135,11.32a3.015,3.015,0,0,0,2.152.9.364.364,0,0,1,.057,0,3.021,3.021,0,0,0,2.176-.99l20.559-22.639A3.02,3.02,0,0,0,168.822,162.607Z" transform="translate(-132.079 -161.824)" fill="#fff"/>
        </g>
      </g>
    </g>
  </g>
</svg>
