<svg id="success" xmlns="http://www.w3.org/2000/svg" width="130" height="130" viewBox="0 0 130 130">
  <g id="Group_595" data-name="Group 595">
    <g id="Group_594" data-name="Group 594">
      <path id="Path_25" data-name="Path 25" d="M65,0a65,65,0,1,0,65,65A65.071,65.071,0,0,0,65,0Zm0,119.93A54.93,54.93,0,1,1,119.93,65,54.994,54.994,0,0,1,65,119.93Z" fill="#2e8301"/>
    </g>
  </g>
  <g id="Group_597" data-name="Group 597" transform="translate(27.185 36.261)">
    <g id="Group_596" data-name="Group 596">
      <path id="Path_26" data-name="Path 26" d="M205.733,163.393a6.054,6.054,0,0,0-8.544.411l-36.911,40.644L142.446,186.32a6.05,6.05,0,0,0-8.629,8.483l22.322,22.691a6.043,6.043,0,0,0,4.314,1.809.727.727,0,0,1,.115.006,6.055,6.055,0,0,0,4.363-1.985l41.213-45.382A6.054,6.054,0,0,0,205.733,163.393Z" transform="translate(-132.079 -161.824)" fill="#2e8301"/>
    </g>
  </g>
</svg>
