<svg xmlns="http://www.w3.org/2000/svg" width="130" height="165" viewBox="0 0 130 165">
  <g id="Group_602" data-name="Group 602" transform="translate(-180 -380)">
    <g id="surface1" transform="translate(180 380)">
      <path id="Path_18" data-name="Path 18" d="M88.924,1.275A3.96,3.96,0,0,0,86.071,0H22.061A21.712,21.712,0,0,0,.5,21.641V143.358A21.713,21.713,0,0,0,22.061,165h86.878A21.713,21.713,0,0,0,130.5,143.358V46.71a4.3,4.3,0,0,0-1.149-2.79Zm1.149,12.794,27.071,28.576h-17.6a9.465,9.465,0,0,1-9.473-9.485Zm18.866,142.96H22.061A13.767,13.767,0,0,1,8.427,143.358V21.641A13.766,13.766,0,0,1,22.061,7.971H82.146V33.159a17.387,17.387,0,0,0,17.4,17.456h23.027v92.742A13.74,13.74,0,0,1,108.939,157.029Zm0,0" transform="translate(-0.5)" fill="#10579b"/>
      <path id="Path_20" data-name="Path 20" d="M124.331,197.425l14.023-15.079v37.169a3.4,3.4,0,0,0,6.807,0V182.345l14.023,15.079a3.4,3.4,0,0,0,4.97-4.629L144.21,171.386a3.379,3.379,0,0,0-4.969,0L119.295,192.8a3.392,3.392,0,0,0,.17,4.8A3.473,3.473,0,0,0,124.331,197.425Zm0,0" transform="translate(-76.768 -118.94)" fill="#10579b"/>
    </g>
    <text id="CSV" transform="translate(214 515)" fill="#10579b" font-size="30" font-family="'.AppleSystemUIFont'" font-weight="700"><tspan x="0" y="0">CSV</tspan></text>
  </g>
</svg>
