<svg xmlns="http://www.w3.org/2000/svg" width="68" height="61" viewBox="0 0 68 61">
  <g id="alert" transform="translate(0 -26.315)">
    <g id="Group_603" data-name="Group 603" transform="translate(0 26.315)">
      <g id="Group_602" data-name="Group 602" transform="translate(0 0)">
        <path id="Path_30" data-name="Path 30" d="M66.916,75.323,40.924,30.312a8,8,0,0,0-13.849,0L1.084,75.323A7.995,7.995,0,0,0,8.008,87.315H59.991a7.994,7.994,0,0,0,6.925-11.992Zm-3.45,6a3.971,3.971,0,0,1-3.475,2.006H8.008a4.011,4.011,0,0,1-3.475-6.017L30.525,32.3a4.012,4.012,0,0,1,6.949,0L63.466,77.315A3.97,3.97,0,0,1,63.466,81.326Z" transform="translate(0 -26.315)" fill="#fff"/>
      </g>
    </g>
    <g id="Group_605" data-name="Group 605" transform="translate(32 46.153)">
      <g id="Group_604" data-name="Group 604" transform="translate(0 0)">
        <rect id="Rectangle_1151" data-name="Rectangle 1151" width="4" height="19.999" fill="#fff"/>
      </g>
    </g>
    <g id="Group_607" data-name="Group 607" transform="translate(31.333 70.075)">
      <g id="Group_606" data-name="Group 606">
        <path id="Path_31" data-name="Path 31" d="M238.669,355.99a2.667,2.667,0,1,0,2.667,2.667A2.67,2.67,0,0,0,238.669,355.99Z" transform="translate(-236.002 -355.99)" fill="#fff"/>
      </g>
    </g>
  </g>
</svg>
